name rise30.3154peak39.0474fall46.5389.mot
datacolumns 19
datarows 36
range 14.02161400000000 14.07995900000000
endheader
time	ground_force1_vx	ground_force1_vy	ground_force1_vz	ground_force1_px	ground_force1_py	ground_force1_pz	ground_force2_vx	ground_force2_vy	ground_force2_vz	ground_force2_px	ground_force2_py	ground_force2_pz	ground_torque1_x	ground_torque1_y	ground_torque1_z	ground_torque2_x	ground_torque2_y	ground_torque2_z	
14.02161400000000	54.80018700000000	720.83919300000002	55.71008700000000	0.38064100000000	0.00000000000000	0.10749200000000	0.00000000000000	0.00000000000000	0.00000000000000	0.00000000000000	0.00000000000000	0.00000000000000	0.00000000000000	27.64622100000000	0.00000000000000	0.00000000000000	0.00000000000000	0.00000000000000	
14.02328000000000	54.19657700000000	723.89176299999997	55.72730600000000	0.37871600000000	0.00000000000000	0.10751100000000	0.00000000000000	0.00000000000000	0.00000000000000	0.00000000000000	0.00000000000000	0.00000000000000	0.00000000000000	27.57538900000000	0.00000000000000	0.00000000000000	0.00000000000000	0.00000000000000	
14.02496500000000	53.59905300000000	726.91591700000004	55.74945300000000	0.37682700000000	0.00000000000000	0.10752800000000	0.00000000000000	0.00000000000000	0.00000000000000	0.00000000000000	0.00000000000000	0.00000000000000	0.00000000000000	27.51122300000000	0.00000000000000	0.00000000000000	0.00000000000000	0.00000000000000	
14.02661600000000	53.00808400000000	729.90778499999999	55.77649900000000	0.37497900000000	0.00000000000000	0.10754300000000	0.00000000000000	0.00000000000000	0.00000000000000	0.00000000000000	0.00000000000000	0.00000000000000	0.00000000000000	27.45384800000000	0.00000000000000	0.00000000000000	0.00000000000000	0.00000000000000	
14.02828500000000	52.42405100000000	732.86333000000002	55.80831400000000	0.37317300000000	0.00000000000000	0.10755700000000	0.00000000000000	0.00000000000000	0.00000000000000	0.00000000000000	0.00000000000000	0.00000000000000	0.00000000000000	27.40331600000000	0.00000000000000	0.00000000000000	0.00000000000000	0.00000000000000	
14.02995600000000	51.84725300000000	735.77837699999998	55.84467800000000	0.37141200000000	0.00000000000000	0.10757000000000	0.00000000000000	0.00000000000000	0.00000000000000	0.00000000000000	0.00000000000000	0.00000000000000	0.00000000000000	27.35960600000000	0.00000000000000	0.00000000000000	0.00000000000000	0.00000000000000	
14.03162000000000	51.27791100000000	738.64863800000001	55.88528000000000	0.36969800000000	0.00000000000000	0.10758100000000	0.00000000000000	0.00000000000000	0.00000000000000	0.00000000000000	0.00000000000000	0.00000000000000	0.00000000000000	27.32262500000000	0.00000000000000	0.00000000000000	0.00000000000000	0.00000000000000	
14.03328100000000	50.71617000000000	741.46973600000001	55.92972700000000	0.36803300000000	0.00000000000000	0.10759000000000	0.00000000000000	0.00000000000000	0.00000000000000	0.00000000000000	0.00000000000000	0.00000000000000	0.00000000000000	27.29221600000000	0.00000000000000	0.00000000000000	0.00000000000000	0.00000000000000	
14.03496700000000	50.16210300000000	744.23723700000005	55.97755000000000	0.36641800000000	0.00000000000000	0.10759800000000	0.00000000000000	0.00000000000000	0.00000000000000	0.00000000000000	0.00000000000000	0.00000000000000	0.00000000000000	27.26815900000000	0.00000000000000	0.00000000000000	0.00000000000000	0.00000000000000	
14.03661500000000	49.61571600000000	746.94666700000005	56.02820800000000	0.36485500000000	0.00000000000000	0.10760300000000	0.00000000000000	0.00000000000000	0.00000000000000	0.00000000000000	0.00000000000000	0.00000000000000	0.00000000000000	27.25017600000000	0.00000000000000	0.00000000000000	0.00000000000000	0.00000000000000	
14.03828200000000	49.07695300000000	749.59354699999994	56.08109600000000	0.36334400000000	0.00000000000000	0.10760600000000	0.00000000000000	0.00000000000000	0.00000000000000	0.00000000000000	0.00000000000000	0.00000000000000	0.00000000000000	27.23793700000000	0.00000000000000	0.00000000000000	0.00000000000000	0.00000000000000	
14.03995600000000	48.54570000000000	752.17341399999998	56.13555300000000	0.36188700000000	0.00000000000000	0.10760700000000	0.00000000000000	0.00000000000000	0.00000000000000	0.00000000000000	0.00000000000000	0.00000000000000	0.00000000000000	27.23106100000000	0.00000000000000	0.00000000000000	0.00000000000000	0.00000000000000	
14.04161600000000	48.02179100000000	754.68184399999996	56.19086800000000	0.36048400000000	0.00000000000000	0.10760600000000	0.00000000000000	0.00000000000000	0.00000000000000	0.00000000000000	0.00000000000000	0.00000000000000	0.00000000000000	27.22912300000000	0.00000000000000	0.00000000000000	0.00000000000000	0.00000000000000	
14.04327900000000	47.50500900000000	757.11448199999995	56.24628700000000	0.35913500000000	0.00000000000000	0.10760200000000	0.00000000000000	0.00000000000000	0.00000000000000	0.00000000000000	0.00000000000000	0.00000000000000	0.00000000000000	27.23165600000000	0.00000000000000	0.00000000000000	0.00000000000000	0.00000000000000	
14.04495700000000	46.99509800000000	759.46706099999994	56.30102000000000	0.35784200000000	0.00000000000000	0.10759600000000	0.00000000000000	0.00000000000000	0.00000000000000	0.00000000000000	0.00000000000000	0.00000000000000	0.00000000000000	27.23816200000000	0.00000000000000	0.00000000000000	0.00000000000000	0.00000000000000	
14.04661300000000	46.49176100000000	761.73542499999996	56.35425200000000	0.35660300000000	0.00000000000000	0.10758700000000	0.00000000000000	0.00000000000000	0.00000000000000	0.00000000000000	0.00000000000000	0.00000000000000	0.00000000000000	27.24810600000000	0.00000000000000	0.00000000000000	0.00000000000000	0.00000000000000	
14.04828200000000	45.99467200000000	763.91555500000004	56.40514300000000	0.35541800000000	0.00000000000000	0.10757600000000	0.00000000000000	0.00000000000000	0.00000000000000	0.00000000000000	0.00000000000000	0.00000000000000	0.00000000000000	27.26093200000000	0.00000000000000	0.00000000000000	0.00000000000000	0.00000000000000	
14.04996400000000	45.50347400000000	766.00358300000005	56.45284500000000	0.35428800000000	0.00000000000000	0.10756200000000	0.00000000000000	0.00000000000000	0.00000000000000	0.00000000000000	0.00000000000000	0.00000000000000	0.00000000000000	27.27605800000000	0.00000000000000	0.00000000000000	0.00000000000000	0.00000000000000	
14.05162100000000	45.01779200000000	767.99581799999999	56.49649900000000	0.35321100000000	0.00000000000000	0.10754500000000	0.00000000000000	0.00000000000000	0.00000000000000	0.00000000000000	0.00000000000000	0.00000000000000	0.00000000000000	27.29288700000000	0.00000000000000	0.00000000000000	0.00000000000000	0.00000000000000	
14.05328200000000	44.53722900000000	769.88876000000005	56.53525100000000	0.35218600000000	0.00000000000000	0.10752600000000	0.00000000000000	0.00000000000000	0.00000000000000	0.00000000000000	0.00000000000000	0.00000000000000	0.00000000000000	27.31080800000000	0.00000000000000	0.00000000000000	0.00000000000000	0.00000000000000	
14.05497100000000	44.06138100000000	771.67911900000001	56.56825300000000	0.35121300000000	0.00000000000000	0.10750400000000	0.00000000000000	0.00000000000000	0.00000000000000	0.00000000000000	0.00000000000000	0.00000000000000	0.00000000000000	27.32920200000000	0.00000000000000	0.00000000000000	0.00000000000000	0.00000000000000	
14.05661900000000	43.58983400000000	773.36383200000000	56.59467200000000	0.35029000000000	0.00000000000000	0.10747900000000	0.00000000000000	0.00000000000000	0.00000000000000	0.00000000000000	0.00000000000000	0.00000000000000	0.00000000000000	27.34744400000000	0.00000000000000	0.00000000000000	0.00000000000000	0.00000000000000	
14.05828600000000	43.12217100000000	774.94007199999999	56.61369500000000	0.34941500000000	0.00000000000000	0.10745200000000	0.00000000000000	0.00000000000000	0.00000000000000	0.00000000000000	0.00000000000000	0.00000000000000	0.00000000000000	27.36491000000000	0.00000000000000	0.00000000000000	0.00000000000000	0.00000000000000	
14.05994600000000	42.65797900000000	776.40526799999998	56.62453800000000	0.34858800000000	0.00000000000000	0.10742200000000	0.00000000000000	0.00000000000000	0.00000000000000	0.00000000000000	0.00000000000000	0.00000000000000	0.00000000000000	27.38097800000000	0.00000000000000	0.00000000000000	0.00000000000000	0.00000000000000	
14.06161400000000	42.19684900000000	777.75711200000001	56.62644700000000	0.34780700000000	0.00000000000000	0.10738900000000	0.00000000000000	0.00000000000000	0.00000000000000	0.00000000000000	0.00000000000000	0.00000000000000	0.00000000000000	27.39503600000000	0.00000000000000	0.00000000000000	0.00000000000000	0.00000000000000	
14.06328200000000	41.73838600000000	778.99356899999998	56.61870800000000	0.34706900000000	0.00000000000000	0.10735300000000	0.00000000000000	0.00000000000000	0.00000000000000	0.00000000000000	0.00000000000000	0.00000000000000	0.00000000000000	27.40648100000000	0.00000000000000	0.00000000000000	0.00000000000000	0.00000000000000	
14.06495900000000	41.28220500000000	780.11288800000000	56.60064900000000	0.34637400000000	0.00000000000000	0.10731500000000	0.00000000000000	0.00000000000000	0.00000000000000	0.00000000000000	0.00000000000000	0.00000000000000	0.00000000000000	27.41472300000000	0.00000000000000	0.00000000000000	0.00000000000000	0.00000000000000	
14.06661200000000	40.82794100000000	781.11360700000000	56.57164500000000	0.34571700000000	0.00000000000000	0.10727500000000	0.00000000000000	0.00000000000000	0.00000000000000	0.00000000000000	0.00000000000000	0.00000000000000	0.00000000000000	27.41919200000000	0.00000000000000	0.00000000000000	0.00000000000000	0.00000000000000	
14.06827900000000	40.37525000000000	781.99455799999998	56.53112100000000	0.34509900000000	0.00000000000000	0.10723200000000	0.00000000000000	0.00000000000000	0.00000000000000	0.00000000000000	0.00000000000000	0.00000000000000	0.00000000000000	27.41933800000000	0.00000000000000	0.00000000000000	0.00000000000000	0.00000000000000	
14.06996400000000	39.92381100000000	782.75487299999998	56.47856100000000	0.34451500000000	0.00000000000000	0.10718600000000	0.00000000000000	0.00000000000000	0.00000000000000	0.00000000000000	0.00000000000000	0.00000000000000	0.00000000000000	27.41463400000000	0.00000000000000	0.00000000000000	0.00000000000000	0.00000000000000	
14.07162100000000	39.47333100000000	783.39398400000005	56.41350300000000	0.34396500000000	0.00000000000000	0.10713900000000	0.00000000000000	0.00000000000000	0.00000000000000	0.00000000000000	0.00000000000000	0.00000000000000	0.00000000000000	27.40458100000000	0.00000000000000	0.00000000000000	0.00000000000000	0.00000000000000	
14.07328700000000	39.02354400000000	783.91162799999995	56.33554800000000	0.34344400000000	0.00000000000000	0.10708900000000	0.00000000000000	0.00000000000000	0.00000000000000	0.00000000000000	0.00000000000000	0.00000000000000	0.00000000000000	27.38870700000000	0.00000000000000	0.00000000000000	0.00000000000000	0.00000000000000	
14.07496300000000	38.57421600000000	784.30784000000006	56.24436000000000	0.34295200000000	0.00000000000000	0.10703700000000	0.00000000000000	0.00000000000000	0.00000000000000	0.00000000000000	0.00000000000000	0.00000000000000	0.00000000000000	27.36657200000000	0.00000000000000	0.00000000000000	0.00000000000000	0.00000000000000	
14.07661700000000	38.12514500000000	784.58295899999996	56.13966600000000	0.34248500000000	0.00000000000000	0.10698300000000	0.00000000000000	0.00000000000000	0.00000000000000	0.00000000000000	0.00000000000000	0.00000000000000	0.00000000000000	27.33776800000000	0.00000000000000	0.00000000000000	0.00000000000000	0.00000000000000	
14.07828500000000	37.67616500000000	784.73762099999999	56.02126100000000	0.34204000000000	0.00000000000000	0.10692700000000	0.00000000000000	0.00000000000000	0.00000000000000	0.00000000000000	0.00000000000000	0.00000000000000	0.00000000000000	27.30192500000000	0.00000000000000	0.00000000000000	0.00000000000000	0.00000000000000	
14.07995900000000	37.22714000000000	784.77275199999997	55.88900500000000	0.34161500000000	0.00000000000000	0.10686900000000	0.00000000000000	0.00000000000000	0.00000000000000	0.00000000000000	0.00000000000000	0.00000000000000	0.00000000000000	27.25870600000000	0.00000000000000	0.00000000000000	0.00000000000000	0.00000000000000	
